<svg width="219" height="25" viewBox="0 0 219 25" fill="none" xmlns="http://www.w3.org/2000/svg">
<path d="M0.68 18V0.719999H7.82C7.988 0.719999 8.204 0.727999 8.468 0.743999C8.732 0.751999 8.976 0.776 9.2 0.816C10.2 0.967999 11.024 1.3 11.672 1.812C12.328 2.324 12.812 2.972 13.124 3.756C13.444 4.532 13.604 5.396 13.604 6.348C13.604 7.292 13.444 8.156 13.124 8.94C12.804 9.716 12.316 10.36 11.66 10.872C11.012 11.384 10.192 11.716 9.2 11.868C8.976 11.9 8.728 11.924 8.456 11.94C8.192 11.956 7.98 11.964 7.82 11.964H3.572V18H0.68ZM3.572 9.264H7.7C7.86 9.264 8.04 9.256 8.24 9.24C8.44 9.224 8.624 9.192 8.792 9.144C9.272 9.024 9.648 8.812 9.92 8.508C10.2 8.204 10.396 7.86 10.508 7.476C10.628 7.092 10.688 6.716 10.688 6.348C10.688 5.98 10.628 5.604 10.508 5.22C10.396 4.828 10.2 4.48 9.92 4.176C9.648 3.872 9.272 3.66 8.792 3.54C8.624 3.492 8.44 3.464 8.24 3.456C8.04 3.44 7.86 3.432 7.7 3.432H3.572V9.264ZM16.7281 18V5.04H19.2841V8.196L18.9721 7.788C19.1321 7.356 19.3441 6.964 19.6081 6.612C19.8801 6.252 20.2041 5.956 20.5801 5.724C20.9001 5.508 21.2521 5.34 21.6361 5.22C22.0281 5.092 22.4281 5.016 22.8361 4.992C23.2441 4.96 23.6401 4.976 24.0241 5.04V7.74C23.6401 7.628 23.1961 7.592 22.6921 7.632C22.1961 7.672 21.7481 7.812 21.3481 8.052C20.9481 8.268 20.6201 8.544 20.3641 8.88C20.1161 9.216 19.9321 9.6 19.8121 10.032C19.6921 10.456 19.6321 10.916 19.6321 11.412V18H16.7281ZM32.5237 18.36C31.2277 18.36 30.0957 18.068 29.1277 17.484C28.1597 16.9 27.4077 16.096 26.8717 15.072C26.3437 14.04 26.0797 12.856 26.0797 11.52C26.0797 10.16 26.3517 8.968 26.8957 7.944C27.4397 6.92 28.1957 6.12 29.1637 5.544C30.1317 4.968 31.2517 4.68 32.5237 4.68C33.8277 4.68 34.9637 4.972 35.9317 5.556C36.8997 6.14 37.6517 6.948 38.1877 7.98C38.7237 9.004 38.9917 10.184 38.9917 11.52C38.9917 12.864 38.7197 14.052 38.1757 15.084C37.6397 16.108 36.8877 16.912 35.9197 17.496C34.9517 18.072 33.8197 18.36 32.5237 18.36ZM32.5237 15.648C33.6757 15.648 34.5317 15.264 35.0917 14.496C35.6517 13.728 35.9317 12.736 35.9317 11.52C35.9317 10.264 35.6477 9.264 35.0797 8.52C34.5117 7.768 33.6597 7.392 32.5237 7.392C31.7477 7.392 31.1077 7.568 30.6037 7.92C30.1077 8.264 29.7397 8.748 29.4997 9.372C29.2597 9.988 29.1397 10.704 29.1397 11.52C29.1397 12.776 29.4237 13.78 29.9917 14.532C30.5677 15.276 31.4117 15.648 32.5237 15.648ZM40.4356 23.76V21.048H41.0476C41.7516 21.048 42.2516 20.884 42.5476 20.556C42.8436 20.228 42.9916 19.744 42.9916 19.104V5.04H45.8716V20.4C45.8716 21.448 45.5636 22.268 44.9476 22.86C44.3396 23.46 43.4916 23.76 42.4036 23.76H40.4356ZM42.9916 3.072V0.42H45.8716V3.072H42.9916ZM55.8817 18.36C54.5697 18.36 53.4177 18.076 52.4257 17.508C51.4337 16.94 50.6577 16.152 50.0977 15.144C49.5457 14.136 49.2697 12.976 49.2697 11.664C49.2697 10.248 49.5417 9.02 50.0857 7.98C50.6297 6.932 51.3857 6.12 52.3537 5.544C53.3217 4.968 54.4417 4.68 55.7137 4.68C57.0577 4.68 58.1977 4.996 59.1337 5.628C60.0777 6.252 60.7777 7.136 61.2337 8.28C61.6897 9.424 61.8617 10.772 61.7497 12.324H58.8817V11.268C58.8737 9.86 58.6257 8.832 58.1377 8.184C57.6497 7.536 56.8817 7.212 55.8337 7.212C54.6497 7.212 53.7697 7.58 53.1937 8.316C52.6177 9.044 52.3297 10.112 52.3297 11.52C52.3297 12.832 52.6177 13.848 53.1937 14.568C53.7697 15.288 54.6097 15.648 55.7137 15.648C56.4257 15.648 57.0377 15.492 57.5497 15.18C58.0697 14.86 58.4697 14.4 58.7497 13.8L61.6057 14.664C61.1097 15.832 60.3417 16.74 59.3017 17.388C58.2697 18.036 57.1297 18.36 55.8817 18.36ZM51.4177 12.324V10.14H60.3337V12.324H51.4177ZM72.7432 18C71.8872 18.16 71.0472 18.228 70.2232 18.204C69.4072 18.188 68.6752 18.04 68.0272 17.76C67.3792 17.472 66.8872 17.02 66.5512 16.404C66.2552 15.844 66.0992 15.272 66.0832 14.688C66.0672 14.104 66.0592 13.444 66.0592 12.708V1.44H68.9392V12.54C68.9392 13.06 68.9432 13.516 68.9512 13.908C68.9672 14.3 69.0512 14.62 69.2032 14.868C69.4912 15.348 69.9512 15.616 70.5832 15.672C71.2152 15.728 71.9352 15.696 72.7432 15.576V18ZM63.7072 7.308V5.04H72.7432V7.308H63.7072ZM81.3178 18.36C80.0217 18.36 78.8897 18.068 77.9217 17.484C76.9537 16.9 76.2017 16.096 75.6657 15.072C75.1377 14.04 74.8737 12.856 74.8737 11.52C74.8737 10.16 75.1457 8.968 75.6897 7.944C76.2337 6.92 76.9897 6.12 77.9577 5.544C78.9258 4.968 80.0458 4.68 81.3178 4.68C82.6218 4.68 83.7578 4.972 84.7257 5.556C85.6938 6.14 86.4458 6.948 86.9818 7.98C87.5178 9.004 87.7857 10.184 87.7857 11.52C87.7857 12.864 87.5138 14.052 86.9698 15.084C86.4338 16.108 85.6818 16.912 84.7138 17.496C83.7458 18.072 82.6138 18.36 81.3178 18.36ZM81.3178 15.648C82.4698 15.648 83.3258 15.264 83.8858 14.496C84.4457 13.728 84.7257 12.736 84.7257 11.52C84.7257 10.264 84.4418 9.264 83.8738 8.52C83.3058 7.768 82.4538 7.392 81.3178 7.392C80.5418 7.392 79.9018 7.568 79.3977 7.92C78.9017 8.264 78.5337 8.748 78.2937 9.372C78.0537 9.988 77.9337 10.704 77.9337 11.52C77.9337 12.776 78.2177 13.78 78.7857 14.532C79.3617 15.276 80.2057 15.648 81.3178 15.648Z" fill="white"/>
<path d="M91.3897 18V0.719999H94.2817V18H91.3897ZM107.56 18V11.76C107.56 11.352 107.532 10.9 107.476 10.404C107.42 9.908 107.288 9.432 107.08 8.976C106.88 8.512 106.576 8.132 106.168 7.836C105.768 7.54 105.224 7.392 104.536 7.392C104.168 7.392 103.804 7.452 103.444 7.572C103.084 7.692 102.756 7.9 102.46 8.196C102.172 8.484 101.94 8.884 101.764 9.396C101.588 9.9 101.5 10.548 101.5 11.34L99.7843 10.608C99.7843 9.504 99.9963 8.504 100.42 7.608C100.852 6.712 101.484 6 102.316 5.472C103.148 4.936 104.172 4.668 105.388 4.668C106.348 4.668 107.14 4.828 107.764 5.148C108.388 5.468 108.884 5.876 109.252 6.372C109.62 6.868 109.892 7.396 110.068 7.956C110.244 8.516 110.356 9.048 110.404 9.552C110.46 10.048 110.488 10.452 110.488 10.764V18H107.56ZM98.5723 18V5.04H101.152V9.06H101.5V18H98.5723ZM121.936 18C121.08 18.16 120.24 18.228 119.416 18.204C118.6 18.188 117.868 18.04 117.22 17.76C116.572 17.472 116.08 17.02 115.744 16.404C115.448 15.844 115.292 15.272 115.276 14.688C115.26 14.104 115.252 13.444 115.252 12.708V1.44H118.132V12.54C118.132 13.06 118.136 13.516 118.144 13.908C118.16 14.3 118.244 14.62 118.396 14.868C118.684 15.348 119.144 15.616 119.776 15.672C120.408 15.728 121.128 15.696 121.936 15.576V18ZM112.9 7.308V5.04H121.936V7.308H112.9ZM130.678 18.36C129.366 18.36 128.214 18.076 127.222 17.508C126.23 16.94 125.454 16.152 124.894 15.144C124.342 14.136 124.066 12.976 124.066 11.664C124.066 10.248 124.338 9.02 124.882 7.98C125.426 6.932 126.182 6.12 127.15 5.544C128.118 4.968 129.238 4.68 130.51 4.68C131.854 4.68 132.994 4.996 133.93 5.628C134.874 6.252 135.574 7.136 136.03 8.28C136.486 9.424 136.658 10.772 136.546 12.324H133.678V11.268C133.67 9.86 133.422 8.832 132.934 8.184C132.446 7.536 131.678 7.212 130.63 7.212C129.446 7.212 128.566 7.58 127.99 8.316C127.414 9.044 127.126 10.112 127.126 11.52C127.126 12.832 127.414 13.848 127.99 14.568C128.566 15.288 129.406 15.648 130.51 15.648C131.222 15.648 131.834 15.492 132.346 15.18C132.866 14.86 133.266 14.4 133.546 13.8L136.402 14.664C135.906 15.832 135.138 16.74 134.098 17.388C133.066 18.036 131.926 18.36 130.678 18.36ZM126.214 12.324V10.14H135.13V12.324H126.214ZM145.392 24.12C144.672 24.12 143.98 24.008 143.316 23.784C142.66 23.56 142.068 23.236 141.54 22.812C141.012 22.396 140.58 21.892 140.244 21.3L142.908 19.98C143.156 20.452 143.504 20.8 143.952 21.024C144.408 21.256 144.892 21.372 145.404 21.372C146.004 21.372 146.54 21.264 147.012 21.048C147.484 20.84 147.848 20.528 148.104 20.112C148.368 19.704 148.492 19.192 148.476 18.576V14.892H148.836V5.04H151.368V18.624C151.368 18.952 151.352 19.264 151.32 19.56C151.296 19.864 151.252 20.16 151.188 20.448C150.996 21.288 150.628 21.976 150.084 22.512C149.54 23.056 148.864 23.46 148.056 23.724C147.256 23.988 146.368 24.12 145.392 24.12ZM145.14 18.36C143.948 18.36 142.908 18.06 142.02 17.46C141.132 16.86 140.444 16.044 139.956 15.012C139.468 13.98 139.224 12.816 139.224 11.52C139.224 10.208 139.468 9.04 139.956 8.016C140.452 6.984 141.152 6.172 142.056 5.58C142.96 4.98 144.024 4.68 145.248 4.68C146.48 4.68 147.512 4.98 148.344 5.58C149.184 6.172 149.82 6.984 150.252 8.016C150.684 9.048 150.9 10.216 150.9 11.52C150.9 12.808 150.684 13.972 150.252 15.012C149.82 16.044 149.176 16.86 148.32 17.46C147.464 18.06 146.404 18.36 145.14 18.36ZM145.584 15.768C146.36 15.768 146.984 15.592 147.456 15.24C147.936 14.88 148.284 14.38 148.5 13.74C148.724 13.1 148.836 12.36 148.836 11.52C148.836 10.672 148.724 9.932 148.5 9.3C148.284 8.66 147.944 8.164 147.48 7.812C147.016 7.452 146.416 7.272 145.68 7.272C144.904 7.272 144.264 7.464 143.76 7.848C143.256 8.224 142.884 8.736 142.644 9.384C142.404 10.024 142.284 10.736 142.284 11.52C142.284 12.312 142.4 13.032 142.632 13.68C142.872 14.32 143.236 14.828 143.724 15.204C144.212 15.58 144.832 15.768 145.584 15.768ZM155.453 18V5.04H158.009V8.196L157.697 7.788C157.857 7.356 158.069 6.964 158.333 6.612C158.605 6.252 158.929 5.956 159.305 5.724C159.625 5.508 159.977 5.34 160.361 5.22C160.753 5.092 161.153 5.016 161.561 4.992C161.969 4.96 162.365 4.976 162.749 5.04V7.74C162.365 7.628 161.921 7.592 161.417 7.632C160.921 7.672 160.473 7.812 160.073 8.052C159.673 8.268 159.345 8.544 159.089 8.88C158.841 9.216 158.657 9.6 158.537 10.032C158.417 10.456 158.357 10.916 158.357 11.412V18H155.453ZM169.078 18.36C168.142 18.36 167.35 18.184 166.702 17.832C166.054 17.472 165.562 16.996 165.226 16.404C164.898 15.812 164.734 15.16 164.734 14.448C164.734 13.824 164.838 13.264 165.046 12.768C165.254 12.264 165.574 11.832 166.006 11.472C166.438 11.104 166.998 10.804 167.686 10.572C168.206 10.404 168.814 10.252 169.51 10.116C170.214 9.98 170.974 9.856 171.79 9.744C172.614 9.624 173.474 9.496 174.37 9.36L173.338 9.948C173.346 9.052 173.146 8.392 172.738 7.968C172.33 7.544 171.642 7.332 170.674 7.332C170.09 7.332 169.526 7.468 168.982 7.74C168.438 8.012 168.058 8.48 167.842 9.144L165.202 8.316C165.522 7.22 166.13 6.34 167.026 5.676C167.93 5.012 169.146 4.68 170.674 4.68C171.826 4.68 172.838 4.868 173.71 5.244C174.59 5.62 175.242 6.236 175.666 7.092C175.898 7.548 176.038 8.016 176.086 8.496C176.134 8.968 176.158 9.484 176.158 10.044V18H173.626V15.192L174.046 15.648C173.462 16.584 172.778 17.272 171.994 17.712C171.218 18.144 170.246 18.36 169.078 18.36ZM169.654 16.056C170.31 16.056 170.87 15.94 171.334 15.708C171.798 15.476 172.166 15.192 172.438 14.856C172.718 14.52 172.906 14.204 173.002 13.908C173.154 13.54 173.238 13.12 173.254 12.648C173.278 12.168 173.29 11.78 173.29 11.484L174.178 11.748C173.306 11.884 172.558 12.004 171.934 12.108C171.31 12.212 170.774 12.312 170.326 12.408C169.878 12.496 169.482 12.596 169.138 12.708C168.802 12.828 168.518 12.968 168.286 13.128C168.054 13.288 167.874 13.472 167.746 13.68C167.626 13.888 167.566 14.132 167.566 14.412C167.566 14.732 167.646 15.016 167.806 15.264C167.966 15.504 168.198 15.696 168.502 15.84C168.814 15.984 169.198 16.056 169.654 16.056ZM185.198 18.36C184.006 18.36 182.966 18.06 182.078 17.46C181.19 16.86 180.502 16.044 180.014 15.012C179.526 13.98 179.282 12.816 179.282 11.52C179.282 10.208 179.526 9.04 180.014 8.016C180.51 6.984 181.21 6.172 182.114 5.58C183.018 4.98 184.082 4.68 185.306 4.68C186.538 4.68 187.57 4.98 188.402 5.58C189.242 6.172 189.878 6.984 190.31 8.016C190.742 9.048 190.958 10.216 190.958 11.52C190.958 12.808 190.742 13.972 190.31 15.012C189.878 16.044 189.234 16.86 188.378 17.46C187.522 18.06 186.462 18.36 185.198 18.36ZM185.642 15.768C186.418 15.768 187.042 15.592 187.514 15.24C187.994 14.88 188.342 14.38 188.558 13.74C188.782 13.1 188.894 12.36 188.894 11.52C188.894 10.672 188.782 9.932 188.558 9.3C188.342 8.66 188.002 8.164 187.538 7.812C187.074 7.452 186.474 7.272 185.738 7.272C184.962 7.272 184.322 7.464 183.818 7.848C183.314 8.224 182.942 8.736 182.702 9.384C182.462 10.024 182.342 10.736 182.342 11.52C182.342 12.312 182.458 13.032 182.69 13.68C182.93 14.32 183.294 14.828 183.782 15.204C184.27 15.58 184.89 15.768 185.642 15.768ZM188.894 18V8.904H188.534V0.719999H191.45V18H188.894ZM201.259 18.36C199.963 18.36 198.831 18.068 197.863 17.484C196.895 16.9 196.143 16.096 195.607 15.072C195.079 14.04 194.815 12.856 194.815 11.52C194.815 10.16 195.087 8.968 195.631 7.944C196.175 6.92 196.931 6.12 197.899 5.544C198.867 4.968 199.987 4.68 201.259 4.68C202.563 4.68 203.699 4.972 204.667 5.556C205.635 6.14 206.387 6.948 206.923 7.98C207.459 9.004 207.727 10.184 207.727 11.52C207.727 12.864 207.455 14.052 206.911 15.084C206.375 16.108 205.623 16.912 204.655 17.496C203.687 18.072 202.555 18.36 201.259 18.36ZM201.259 15.648C202.411 15.648 203.267 15.264 203.827 14.496C204.387 13.728 204.667 12.736 204.667 11.52C204.667 10.264 204.383 9.264 203.815 8.52C203.247 7.768 202.395 7.392 201.259 7.392C200.483 7.392 199.843 7.568 199.339 7.92C198.843 8.264 198.475 8.748 198.235 9.372C197.995 9.988 197.875 10.704 197.875 11.52C197.875 12.776 198.159 13.78 198.727 14.532C199.303 15.276 200.147 15.648 201.259 15.648ZM211.091 18V5.04H213.647V8.196L213.335 7.788C213.495 7.356 213.707 6.964 213.971 6.612C214.243 6.252 214.567 5.956 214.943 5.724C215.263 5.508 215.615 5.34 215.999 5.22C216.391 5.092 216.791 5.016 217.199 4.992C217.607 4.96 218.003 4.976 218.387 5.04V7.74C218.003 7.628 217.559 7.592 217.055 7.632C216.559 7.672 216.111 7.812 215.711 8.052C215.311 8.268 214.983 8.544 214.727 8.88C214.479 9.216 214.295 9.6 214.175 10.032C214.055 10.456 213.995 10.916 213.995 11.412V18H211.091Z" fill="#4D77FF"/>
</svg>
